<?xml version="1.0" encoding="UTF-8" standalone="no"?>
<!-- Created with Inkscape (http://www.inkscape.org/) -->

<svg
   version="1.1"
   id="svg318"
   width="385.94403"
   height="198.86539"
   viewBox="0 0 385.94402 198.86539">
  <defs
     id="defs322">
    <clipPath
       clipPathUnits="userSpaceOnUse"
       id="clipPath336">
      <path
         d="M 0,740 H 1100 V 0 H 0 Z"
         id="path334" />
    </clipPath>
  </defs>
  <g
     id="g326"
     transform="matrix(1.3333333,0,0,-1.3333333,-535.83968,658.2391)">
    <g
       id="g330"
       transform="translate(-0.56437019,-0.88085131)">
      <g
         id="g332"
         clip-path="url(#clipPath336)">
        <g
           id="g438"
           transform="translate(424.4927,360.3042)">
          <path
             d="M 0,0 V 8.638 H 5.3 V 7.601 H 1.037 V 5.146 H 4.528 V 4.109 H 1.037 V 1.037 H 5.3 V 0 Z"
             style="fill:#d7883b;fill-opacity:1;fill-rule:nonzero;stroke:none"
             id="path440" />
        </g>
        <g
           id="g442"
           transform="translate(436.6587,360.144)">
          <path
             d="M 0,0 C -0.465,0 -0.913,0.073 -1.345,0.219 -1.777,0.365 -2.154,0.574 -2.477,0.845 -2.8,1.116 -3.029,1.439 -3.165,1.813 l 0.969,0.365 C -2.114,1.947 -1.961,1.747 -1.736,1.576 -1.512,1.405 -1.248,1.272 -0.944,1.179 -0.64,1.084 -0.325,1.036 0,1.036 0.37,1.036 0.715,1.097 1.034,1.219 1.352,1.34 1.61,1.51 1.808,1.728 2.005,1.945 2.104,2.2 2.104,2.492 2.104,2.793 2.001,3.038 1.795,3.229 1.59,3.421 1.327,3.573 1.006,3.687 0.685,3.8 0.35,3.887 0,3.948 -0.596,4.047 -1.13,4.188 -1.601,4.371 -2.072,4.554 -2.444,4.81 -2.717,5.139 -2.991,5.468 -3.128,5.902 -3.128,6.44 c 0,0.502 0.145,0.941 0.435,1.315 0.29,0.374 0.673,0.664 1.151,0.87 C -1.065,8.83 -0.551,8.934 0,8.934 0.457,8.934 0.9,8.862 1.33,8.721 1.759,8.579 2.139,8.372 2.468,8.101 2.797,7.829 3.033,7.498 3.177,7.107 L 2.196,6.749 C 2.114,6.983 1.961,7.187 1.737,7.357 1.513,7.527 1.25,7.659 0.947,7.752 0.645,7.845 0.329,7.891 0,7.891 -0.366,7.895 -0.708,7.835 -1.024,7.712 -1.341,7.589 -1.598,7.418 -1.795,7.2 -1.993,6.981 -2.091,6.729 -2.091,6.44 -2.091,6.096 -2,5.831 -1.817,5.648 -1.634,5.465 -1.384,5.328 -1.067,5.238 -0.75,5.147 -0.395,5.067 0,4.997 0.56,4.902 1.078,4.754 1.555,4.55 2.032,4.347 2.416,4.076 2.706,3.738 2.996,3.401 3.141,2.986 3.141,2.492 3.141,1.99 2.996,1.553 2.706,1.179 2.416,0.804 2.032,0.514 1.555,0.309 1.078,0.103 0.56,0 0,0"
             style="fill:#d7883b;fill-opacity:1;fill-rule:nonzero;stroke:none"
             id="path444" />
        </g>
        <g
           id="g446"
           transform="translate(449.8804,368.9419)">
          <path
             d="m 0,0 v -1.037 h -2.875 v -7.601 h -1.037 v 7.601 H -6.78 V 0 Z"
             style="fill:#d7883b;fill-opacity:1;fill-rule:nonzero;stroke:none"
             id="path448" />
        </g>
        <g
           id="g450"
           transform="translate(453.1562,360.144)">
          <path
             d="m 0,0 c -0.157,0 -0.289,0.056 -0.398,0.167 -0.109,0.11 -0.164,0.246 -0.164,0.407 0,0.152 0.055,0.283 0.164,0.395 C -0.289,1.08 -0.157,1.135 0,1.135 0.16,1.135 0.296,1.08 0.407,0.969 0.518,0.857 0.574,0.726 0.574,0.574 0.574,0.413 0.518,0.277 0.407,0.167 0.296,0.056 0.16,0 0,0"
             style="fill:#d7883b;fill-opacity:1;fill-rule:nonzero;stroke:none"
             id="path452" />
        </g>
        <g
           id="g454"
           transform="translate(644.5176,360.3042)">
          <path
             d="m 0,0 v 7.601 h -0.969 l 0.29,1.037 H 1.037 V 0 Z"
             style="fill:#d7883b;fill-opacity:1;fill-rule:nonzero;stroke:none"
             id="path456" />
        </g>
        <g
           id="g458"
           transform="translate(652.2852,364.2964)">
          <path
             d="M 0,0 C 0.365,0 0.691,0.087 0.978,0.262 1.264,0.437 1.487,0.668 1.65,0.956 1.812,1.244 1.894,1.553 1.894,1.882 1.894,2.239 1.808,2.561 1.635,2.847 1.462,3.133 1.231,3.359 0.943,3.525 0.655,3.692 0.345,3.775 0.012,3.775 -0.354,3.775 -0.68,3.687 -0.966,3.51 -1.252,3.333 -1.476,3.1 -1.639,2.81 -1.801,2.52 -1.882,2.21 -1.882,1.882 -1.882,1.536 -1.799,1.22 -1.632,0.935 -1.466,0.648 -1.239,0.421 -0.953,0.253 -0.668,0.084 -0.35,0 0,0 m -1.21,-3.992 1.845,3.183 c -0.432,-0.128 -0.857,-0.149 -1.274,-0.064 -0.418,0.084 -0.797,0.253 -1.138,0.506 -0.341,0.253 -0.616,0.572 -0.821,0.959 -0.206,0.387 -0.308,0.816 -0.308,1.29 0,0.402 0.076,0.781 0.228,1.135 0.153,0.353 0.362,0.664 0.629,0.931 0.268,0.268 0.577,0.477 0.929,0.629 0.351,0.152 0.728,0.229 1.132,0.229 0.535,0 1.021,-0.132 1.459,-0.395 C 1.909,4.147 2.261,3.795 2.526,3.353 2.791,2.91 2.924,2.42 2.924,1.882 2.924,1.589 2.888,1.331 2.816,1.107 2.744,0.883 2.636,0.64 2.492,0.376 l -2.505,-4.368 z"
             style="fill:#d7883b;fill-opacity:1;fill-rule:nonzero;stroke:none"
             id="path460" />
        </g>
        <g
           id="g462"
           transform="translate(661.3477,361.1802)">
          <path
             d="m 0,0 c 0.378,0 0.717,0.093 1.015,0.278 0.297,0.185 0.532,0.428 0.703,0.728 0.171,0.3 0.256,0.621 0.256,0.963 0,0.357 -0.087,0.684 -0.262,0.98 C 1.537,3.245 1.301,3.483 1.002,3.662 0.704,3.841 0.374,3.931 0.013,3.931 -0.366,3.931 -0.703,3.838 -1,3.652 -1.296,3.468 -1.529,3.227 -1.7,2.931 -1.87,2.635 -1.956,2.313 -1.956,1.969 c 0,-0.375 0.091,-0.71 0.271,-1.006 C -1.504,0.667 -1.264,0.433 -0.966,0.26 -0.668,0.087 -0.346,0 0,0 m 0,-1.036 c -0.547,0 -1.047,0.136 -1.499,0.407 -0.453,0.272 -0.814,0.635 -1.086,1.089 -0.271,0.454 -0.407,0.957 -0.407,1.509 0,0.308 0.036,0.577 0.107,0.807 0.072,0.231 0.181,0.48 0.324,0.747 l 2.444,4.239 H 1.086 L -0.66,4.732 C -0.307,4.844 0.045,4.883 0.395,4.85 0.744,4.816 1.076,4.722 1.391,4.565 1.706,4.409 1.984,4.204 2.228,3.949 2.47,3.693 2.661,3.398 2.801,3.063 2.94,2.729 3.011,2.363 3.011,1.969 3.011,1.553 2.932,1.164 2.773,0.803 2.614,0.44 2.398,0.122 2.125,-0.154 1.852,-0.43 1.532,-0.646 1.166,-0.802 0.8,-0.958 0.411,-1.036 0,-1.036"
             style="fill:#d7883b;fill-opacity:1;fill-rule:nonzero;stroke:none"
             id="path464" />
        </g>
        <g
           id="g466"
           transform="translate(668.9053,363.6851)">
          <path
             d="M 0,0 2.499,-0.012 2.48,3.801 Z m 2.499,-3.381 v 2.332 H -1.216 V 0 L 2.239,5.257 H 3.535 V -0.012 H 4.393 V -1.049 H 3.535 v -2.332 z"
             style="fill:#d7883b;fill-opacity:1;fill-rule:nonzero;stroke:none"
             id="path468" />
        </g>
        <g
           id="g470"
           transform="translate(520.9548,351.3943)">
          <path
             d="m 0,0 -0.181,0.467 c 0.182,0.07 18.313,7.25 28.087,24.204 l 0.434,-0.25 C 18.475,7.311 0.184,0.071 0,0"
             style="fill:#d7883b;fill-opacity:1;fill-rule:nonzero;stroke:none"
             id="path472" />
        </g>
        <g
           id="g474"
           transform="translate(520.8445,351.9852)">
          <path
             d="m 0,0 -0.468,0.178 c 0.042,0.109 4.386,11.097 23.549,21.655 l 0.242,-0.437 C 4.339,10.937 0.041,0.108 0,0"
             style="fill:#d7883b;fill-opacity:1;fill-rule:nonzero;stroke:none"
             id="path476" />
        </g>
        <g
           id="g478"
           transform="translate(520.7771,351.5115)">
          <path
             d="m 0,0 -0.333,0.373 c 0.243,0.216 24.295,21.623 28.957,24.709 l 0.275,-0.417 C 24.267,21.599 0.242,0.216 0,0"
             style="fill:#d7883b;fill-opacity:1;fill-rule:nonzero;stroke:none"
             id="path480" />
        </g>
        <g
           id="g482"
           transform="translate(515.2981,351.4734)">
          <path
             d="m 0,0 c -0.051,0.024 -5.128,2.498 -10.411,6.074 -7.125,4.822 -11.213,9.246 -12.15,13.149 l 0.487,0.117 C -19.905,10.301 0.017,0.547 0.218,0.449 Z"
             style="fill:#d7883b;fill-opacity:1;fill-rule:nonzero;stroke:none"
             id="path484" />
        </g>
        <g
           id="g486"
           transform="translate(516.0603,351.6229)">
          <path
             d="m 0,0 c -2.245,5.143 -15.785,20.386 -15.921,20.54 l 0.373,0.332 C -14.989,20.244 -1.819,5.415 0.458,0.199 Z"
             style="fill:#d7883b;fill-opacity:1;fill-rule:nonzero;stroke:none"
             id="path488" />
        </g>
        <g
           id="g490"
           transform="translate(516.4558,351.3338)">
          <path
             d="m 0,0 c -7.834,4.477 -27.491,29.221 -28.324,30.272 l 0.392,0.311 C -27.729,30.326 -7.502,4.862 0.248,0.434 Z"
             style="fill:#d7883b;fill-opacity:1;fill-rule:nonzero;stroke:none"
             id="path492" />
        </g>
        <g
           id="g494"
           transform="translate(508.4431,368.0154)">
          <path
             d="m 0,0 c -4.754,6.602 -4.732,17.484 -4.731,17.593 l 0.5,-0.004 C -4.232,17.482 -4.251,6.76 0.405,0.293 Z"
             style="fill:#d7883b;fill-opacity:1;fill-rule:nonzero;stroke:none"
             id="path496" />
        </g>
        <g
           id="g498"
           transform="translate(518.1165,351.991)">
          <path
             d="M 0,0 -0.491,0.096 C 1.03,7.927 -10.763,34.303 -10.882,34.568 l 0.456,0.205 C -9.937,33.684 1.551,7.986 0,0"
             style="fill:#d7883b;fill-opacity:1;fill-rule:nonzero;stroke:none"
             id="path500" />
        </g>
        <g
           id="g502"
           transform="translate(513.2849,361.9363)">
          <path
             d="m 0,0 c -2.694,6.957 -9.542,28.701 -9.611,28.919 l 0.477,0.151 c 0.069,-0.219 6.912,-21.948 9.6,-28.89 z"
             style="fill:#d7883b;fill-opacity:1;fill-rule:nonzero;stroke:none"
             id="path504" />
        </g>
        <g
           id="g506"
           transform="translate(519.051,365.8885)">
          <path
             d="M 0,0 C -2.226,10.497 1.789,23.934 1.83,24.068 L 2.308,23.923 C 2.268,23.79 -1.709,10.474 0.489,0.104 Z"
             style="fill:#d7883b;fill-opacity:1;fill-rule:nonzero;stroke:none"
             id="path508" />
        </g>
        <g
           id="g510"
           transform="translate(520.116,355.6902)">
          <path
             d="M 0,0 -0.489,0.102 C 2.037,12.27 2.316,38.543 2.318,38.808 l 0.5,-0.005 C 2.816,38.539 2.537,12.216 0,0"
             style="fill:#d7883b;fill-opacity:1;fill-rule:nonzero;stroke:none"
             id="path512" />
        </g>
        <g
           id="g514"
           transform="translate(522.3445,359.9783)">
          <path
             d="m 0,0 -0.479,0.145 c 4.791,15.754 2.156,30.614 2.128,30.763 l 0.493,0.09 C 2.169,30.848 4.827,15.875 0,0"
             style="fill:#d7883b;fill-opacity:1;fill-rule:nonzero;stroke:none"
             id="path516" />
        </g>
        <g
           id="g518"
           transform="translate(528.2058,371.7459)">
          <path
             d="m 0,0 -0.487,0.113 c 1.772,7.592 8.34,16.412 8.405,16.5 l 0.401,-0.3 C 8.253,16.226 1.748,7.488 0,0"
             style="fill:#d7883b;fill-opacity:1;fill-rule:nonzero;stroke:none"
             id="path520" />
        </g>
        <g
           id="g522"
           transform="translate(527.4519,366.6512)">
          <path
             d="M 0,0 -0.449,0.219 12.31,26.361 12.759,26.142 Z"
             style="fill:#d7883b;fill-opacity:1;fill-rule:nonzero;stroke:none"
             id="path524" />
        </g>
        <g
           id="g526"
           transform="translate(529.8616,368.4617)">
          <path
             d="m 0,0 -0.29,0.407 c 8.427,6.001 10.869,21.124 10.892,21.277 l 0.494,-0.078 C 11.072,21.453 8.6,6.124 0,0"
             style="fill:#d7883b;fill-opacity:1;fill-rule:nonzero;stroke:none"
             id="path528" />
        </g>
        <g
           id="g530"
           transform="translate(535.1794,371.4466)">
          <path
             d="m 0,0 -0.21,0.454 c 4.46,2.067 5.788,9.823 5.801,9.901 L 6.085,10.274 C 6.03,9.944 4.701,2.179 0,0"
             style="fill:#d7883b;fill-opacity:1;fill-rule:nonzero;stroke:none"
             id="path532" />
        </g>
        <g
           id="g534"
           transform="translate(598.5525,353.1531)">
          <path
             d="m 0,0 c -9.983,4.104 -13.694,13.344 -13.73,13.437 l 0.464,0.181 C -13.229,13.527 -9.59,4.483 0.189,0.463 Z"
             style="fill:#d7883b;fill-opacity:1;fill-rule:nonzero;stroke:none"
             id="path536" />
        </g>
        <g
           id="g538"
           transform="translate(603.3972,351.4852)">
          <path
             d="m 0,0 c -0.215,5.216 -10.128,15.77 -10.228,15.875 l 0.364,0.344 C -9.45,15.78 0.276,5.423 0.5,0.021 Z"
             style="fill:#d7883b;fill-opacity:1;fill-rule:nonzero;stroke:none"
             id="path540" />
        </g>
        <g
           id="g542"
           transform="translate(603.7517,351.0526)">
          <path
             d="m 0,0 c -0.333,0.175 -9.257,7.272 -12.395,12.619 -3.083,5.256 -6.204,12.542 -6.235,12.615 l 0.459,0.196 c 0.031,-0.073 3.142,-7.33 6.208,-12.557 C -8.882,7.621 -0.169,0.684 0.237,0.439 Z"
             style="fill:#d7883b;fill-opacity:1;fill-rule:nonzero;stroke:none"
             id="path544" />
        </g>
        <g
           id="g546"
           transform="translate(601.1306,364.1561)">
          <path
             d="M 0,0 C -3.845,7.243 0.446,17.665 0.49,17.77 L 0.951,17.576 C 0.908,17.474 -3.292,7.267 0.441,0.234 Z"
             style="fill:#d7883b;fill-opacity:1;fill-rule:nonzero;stroke:none"
             id="path548" />
        </g>
        <g
           id="g550"
           transform="translate(605.6589,359.5652)">
          <path
             d="m 0,0 -0.406,0.291 c 3.568,4.978 1.158,14.592 1.134,14.688 l 0.484,0.125 C 1.315,14.7 3.703,5.165 0,0"
             style="fill:#d7883b;fill-opacity:1;fill-rule:nonzero;stroke:none"
             id="path552" />
        </g>
        <g
           id="g554"
           transform="translate(604.7488,358.7635)">
          <path
             d="m 0,0 c -0.003,0.068 -0.061,0.458 -0.129,0.909 -0.418,2.788 -1.528,10.197 -1,14.686 0.621,5.28 2.247,13.812 2.264,13.898 l 0.49,-0.094 C 1.609,29.313 -0.013,20.799 -0.633,15.536 -1.153,11.114 -0.01,3.488 0.366,0.982 0.459,0.366 0.496,0.112 0.5,0.02 Z"
             style="fill:#d7883b;fill-opacity:1;fill-rule:nonzero;stroke:none"
             id="path556" />
        </g>
        <g
           id="g558"
           transform="translate(605.7039,351.6688)">
          <path
             d="m 0,0 -0.496,0.059 c 0.032,0.276 0.892,6.868 9.422,14.473 L 9.258,14.159 C 0.885,6.692 0.008,0.066 0,0"
             style="fill:#d7883b;fill-opacity:1;fill-rule:nonzero;stroke:none"
             id="path560" />
        </g>
        <g
           id="g562"
           transform="translate(609.7527,353.1502)">
          <path
             d="M 0,0 -0.172,0.469 C 9.175,3.892 13.1,15.602 13.139,15.719 l 0.474,-0.155 C 13.574,15.444 9.577,3.507 0,0"
             style="fill:#d7883b;fill-opacity:1;fill-rule:nonzero;stroke:none"
             id="path564" />
        </g>
        <g
           id="g566"
           transform="translate(607.2009,351.7479)">
          <path
             d="m 0,0 -0.441,0.234 c 0.024,0.047 2.538,4.706 9.223,11.82 6.568,6.987 5.906,12.494 5.898,12.549 l 0.496,0.068 C 15.208,24.438 15.893,18.889 9.147,11.712 2.513,4.652 0.024,0.045 0,0"
             style="fill:#d7883b;fill-opacity:1;fill-rule:nonzero;stroke:none"
             id="path568" />
        </g>
        <g
           id="g570"
           transform="translate(570.6501,393.3245)">
          <path
             d="m 0,0 c -10.282,0 -18.239,3.886 -18.361,3.947 l 0.222,0.448 C -17.952,4.302 0.675,-4.784 17.687,5.116 L 17.938,4.683 C 11.864,1.149 5.588,0 0,0"
             style="fill:#d7883b;fill-opacity:1;fill-rule:nonzero;stroke:none"
             id="path572" />
        </g>
        <g
           id="g574"
           transform="translate(571.8933,391.41)">
          <path
             d="m 0,0 c -10.877,0 -20.746,4.132 -20.9,4.197 l 0.197,0.46 C -20.468,4.555 3.111,-5.308 17.342,5.69 L 17.648,5.295 C 12.464,1.289 6.074,0 0,0"
             style="fill:#d7883b;fill-opacity:1;fill-rule:nonzero;stroke:none"
             id="path576" />
        </g>
        <g
           id="g578"
           transform="translate(570.2507,389.7532)">
          <path
             d="m 0,0 c -11.928,0 -21.254,4.447 -21.397,4.518 l 0.218,0.449 C -20.958,4.859 1.029,-5.615 20.603,5.883 l 0.253,-0.43 C 13.845,1.334 6.532,0 0,0"
             style="fill:#d7883b;fill-opacity:1;fill-rule:nonzero;stroke:none"
             id="path580" />
        </g>
        <g
           id="g610"
           transform="translate(678.66,352.4)">
          <path
             d="m 0,0 h -67.78 c -0.02,0.06 -0.05,0.12 -0.07,0.19 0.98,0.43 1.98,0.84 2.95,1.32 1.53,0.75 3.06,1.5 4.55,2.34 3.53,1.98 5.07,5.21 5.63,9.07 0.33,2.32 0.2,4.61 -0.12,6.92 -0.17,1.19 -0.16,2.4 -0.24,3.85 18.46,0.1 36.71,-0.09 54.91,-0.01 C 0.24,22.38 0.36,2.37 0,0 m -71.65,0.27 c -0.48,-0.2 -1,-0.3 -1.61,-0.48 -0.68,3.7 0.17,6.76 2.79,9.19 1.16,1.08 2.52,1.96 3.86,2.82 1.29,0.84 2.66,1.56 4.02,2.3 1.51,0.82 2.62,2.02 3.31,3.58 0.58,1.31 1.11,2.64 1.65,3.97 0.2,0.49 0.4,0.99 0.59,1.49 0.08,-0.02 0.15,-0.03 0.22,-0.05 0.23,-2.02 0.51,-4.04 0.66,-6.07 0.17,-2.38 -0.11,-4.74 -0.95,-6.99 -0.71,-1.91 -1.84,-3.54 -3.68,-4.53 -1.89,-1.01 -3.8,-2 -5.73,-2.93 -1.69,-0.82 -3.41,-1.56 -5.13,-2.3 m -2.45,7.01 c -0.19,0.44 -0.37,0.88 -0.57,1.31 -0.78,1.62 -1.84,2.99 -3.34,4.03 -3.89,2.68 -4.86,7 -2.5,11.13 0.54,0.95 1.2,1.84 1.86,2.72 0.59,0.8 1.24,1.55 1.89,2.3 1.59,1.85 3.01,3.79 3.66,6.51 1.12,-2.11 1.45,-4.08 1.29,-6.13 -0.1,-1.2 -0.27,-2.43 -0.61,-3.58 -0.6,-2.03 -0.41,-3.88 0.68,-5.71 1.25,-2.07 1.77,-4.37 1.91,-6.78 0.05,-0.89 -0.16,-1.51 -0.87,-2.15 -1.2,-1.09 -2.22,-2.37 -3.4,-3.65 m -1.26,-7.47 c -0.67,0.15 -1.28,0.19 -1.81,0.41 -2.29,0.99 -4.69,1.55 -7.13,2 -1.19,0.21 -2.36,0.58 -3.49,0.98 -3.08,1.09 -4.96,3.3 -5.38,6.52 -0.22,1.66 -0.12,3.41 0.1,5.08 0.35,2.68 0.9,5.33 0.13,8.2 1.37,-0.47 2.12,-1.35 2.73,-2.37 0.4,-0.66 0.75,-1.35 1.07,-2.05 1.08,-2.33 2.92,-3.81 5.21,-4.83 1.51,-0.67 3.03,-1.34 4.45,-2.18 3.26,-1.94 4.5,-4.97 4.35,-8.66 -0.04,-0.98 -0.14,-1.96 -0.23,-3.1 m -8.6,0.07 c -16.64,0 -33.27,0.02 -49.9,-0.03 -1.32,0 -2.13,0.3 -2.64,1.61 -0.62,1.58 -1.47,3.07 -2.22,4.59 1.01,1.28 2.04,2.38 2.81,3.63 1.53,2.49 2.95,5.06 4.35,7.62 1.32,2.43 2.5,4.94 4.85,6.62 0.44,0.32 0.84,0.8 0.51,1.42 -0.34,0.61 -0.94,0.51 -1.48,0.38 -2.06,-0.46 -4.01,-1.17 -5.76,-2.4 -1.02,-0.72 -2.15,-1.28 -3.47,-2.06 0.24,2.24 0.47,3.98 0.61,5.73 0.07,0.93 0.17,1.93 -0.06,2.81 -0.5,1.8 0.18,3.21 1.11,4.62 1.12,1.7 2.14,3.48 3.69,4.89 7.28,-3.85 15.13,-5.21 23.18,-5.22 8,0 15.81,1.36 23.21,5.24 0.56,-0.66 1.3,-1.34 1.81,-2.16 1.43,-2.29 2.74,-4.65 4.14,-6.97 0.51,-0.85 0.32,-1.47 -0.28,-2.22 -0.93,-1.16 -1.82,-2.37 -2.55,-3.66 -1.35,-2.42 -1.48,-5.05 -0.9,-7.72 0.09,-0.43 0.23,-0.85 0.34,-1.27 0.01,-0.04 -0.06,-0.09 -0.17,-0.27 -1.65,0.7 -3.27,1.45 -4.23,3.13 -0.5,0.86 -0.99,1.72 -1.44,2.61 -1.17,2.36 -3.1,3.82 -5.54,4.67 -0.36,0.13 -0.74,0.24 -1.12,0.24 -0.86,0.01 -1.3,-0.7 -0.72,-1.3 2.12,-2.22 1.79,-4.83 1.4,-7.48 -0.2,-1.37 -0.41,-2.73 -0.55,-4.1 -0.25,-2.49 0.28,-4.83 1.46,-7.03 1.08,-2.02 2.87,-3.21 4.91,-3.98 1.44,-0.55 2.96,-0.87 4.45,-1.28 0.57,-0.15 1.15,-0.27 1.72,-0.66 z m -62.43,0.07 c 2.18,1.6 4.29,3.15 6.47,4.75 0.74,-1.51 1.51,-3.06 2.34,-4.75 z m -11.03,0.12 c -0.29,1.47 0.17,2.74 0.61,3.97 2.19,6.01 6.07,10.6 11.8,13.48 1.54,0.78 3.33,1.09 5.02,1.58 0.9,0.26 1.82,0.43 2.73,0.63 1.64,0.36 3.13,1.04 4.49,2.03 0.74,0.54 1.54,0.99 2.31,1.48 l 0.25,-0.25 c -0.16,-0.3 -0.33,-0.6 -0.49,-0.9 -1.78,-3.18 -3.49,-6.39 -5.34,-9.52 -2.85,-4.86 -6.62,-8.81 -11.8,-11.23 -3.21,-1.5 -6.15,-1.84 -9.58,-1.27 m -0.85,4.96 c -0.08,0.02 -0.16,0.04 -0.25,0.06 0,1.77 0.01,3.53 0,5.29 -0.01,3.19 -0.62,6.25 -1.89,9.18 -0.31,0.71 -0.53,1.45 -0.83,2.16 -1.33,3.16 -0.93,6.16 0.79,9.04 0.45,0.76 0.87,1.54 1.35,2.28 1.29,2.03 2.14,4.23 2.56,6.6 0.1,0.58 0.29,1.15 0.52,2.05 0.24,-0.67 0.35,-1.02 0.49,-1.36 0.42,-1.08 0.72,-2.23 1.31,-3.21 3.29,-5.47 3.86,-11.3 2.36,-17.4 -0.55,-2.25 -1.22,-4.47 -1.85,-6.7 -0.07,-0.25 -0.23,-0.5 -0.39,-0.72 -1.6,-2.07 -2.84,-4.34 -3.87,-6.73 -0.08,-0.19 -0.2,-0.36 -0.3,-0.54 m -1.9,1.15 c -0.18,-1.96 -0.28,-3.93 -0.43,-5.89 -0.11,-0.03 -0.22,-0.05 -0.34,-0.08 -0.5,1.44 -1.09,2.86 -1.47,4.34 -0.9,3.49 -2.7,6.52 -4.84,9.33 -1.42,1.86 -3.43,3.15 -5.55,4.1 -1.55,0.69 -2.27,1.82 -2.63,3.33 -0.48,2.01 -0.54,4.03 -0.03,6.06 0.19,0.74 0.4,1.48 0.62,2.22 0.72,2.48 0.98,4.97 0.35,7.51 -0.12,0.48 -0.16,0.97 -0.07,1.52 0.7,-1.14 1.35,-2.31 2.1,-3.41 2.16,-3.2 4.24,-6.46 6.58,-9.52 4.45,-5.79 6.38,-12.25 5.71,-19.51 m -7.36,-5.54 c -3.08,1.33 -6.14,2.74 -9.09,4.35 -4.6,2.52 -7.17,6.53 -8.11,11.67 -0.38,2.06 -1.01,4.07 -1.48,6.11 -0.34,1.49 -1.08,2.76 -2.03,3.93 -0.62,0.75 -1.21,1.52 -1.5,2.84 0.73,-0.51 1.2,-0.85 1.68,-1.17 1.01,-0.68 2,-1.39 3.04,-1.99 1.27,-0.73 2.36,-1.62 3.14,-2.87 1.86,-3.01 4.47,-5.17 7.67,-6.59 5.49,-2.44 8.34,-6.98 10.1,-12.42 0.48,-1.46 0.92,-2.93 1.41,-4.5 -1.79,-0.38 -3.39,0.01 -4.83,0.64 m -92.98,-0.67 c -0.04,0.03 -0.08,0.06 -0.12,0.09 -0.03,0.04 -0.08,0.09 -0.09,0.14 -0.04,0.38 -0.1,0.77 -0.1,1.15 0,7.23 0.01,14.47 0.03,21.7 0,0.16 0.09,0.31 0.19,0.61 h 72.27 c 0.81,-1.73 1.21,-3.61 1.65,-5.48 0.42,-1.76 0.8,-3.55 1.33,-5.28 1.01,-3.35 3.14,-5.91 5.9,-7.99 2.27,-1.71 4.79,-2.93 7.37,-4.07 0.49,-0.22 0.97,-0.46 1.81,-0.87 z m 83.55,20.86 c -1.24,0.5 -1.92,1.18 -2.8,2.77 h 2.34 c 0.15,-0.9 0.3,-1.8 0.46,-2.77 m -57.73,25.44 h 1.9 c 24.3,0 48.61,-0.02 72.92,0.03 1.57,0.01 2.65,-0.42 3.22,-1.54 -0.58,-1.93 -1.17,-3.64 -1.58,-5.39 -0.49,-2.08 -1.32,-3.97 -2.43,-5.77 -1.1,-1.79 -2.16,-3.61 -2.65,-5.68 -0.17,-0.67 -0.27,-1.36 -0.43,-2.24 -0.35,0.36 -0.55,0.53 -0.7,0.75 -2.53,3.68 -5.1,7.34 -7.56,11.07 -0.7,1.04 -1.1,2.28 -1.63,3.44 -0.23,0.51 -0.45,1.17 -1.11,0.98 -0.43,-0.12 -0.86,-0.62 -1.09,-1.05 -0.54,-1 -0.73,-2.11 -0.42,-3.22 0.85,-2.99 0.42,-5.89 -0.47,-8.79 -0.33,-1.1 -0.52,-2.24 -0.81,-3.51 -1.04,0 -2.08,-0.04 -3.12,0.03 -0.34,0.02 -0.68,0.27 -0.98,0.48 -1,0.69 -1.94,1.45 -2.96,2.1 -1.86,1.19 -3.8,2.26 -4.89,4.33 -0.23,0.45 -0.67,0.88 -1.2,0.57 -0.31,-0.17 -0.56,-0.66 -0.61,-1.04 -0.34,-2.29 0.1,-4.39 1.79,-6.13 -1.2,-0.42 -42.36,-0.56 -45.18,-0.2 -0.33,1.28 -0.37,18.98 -0.01,20.78 m 23.91,23.46 h 46.56 c -0.9,-3.6 -0.83,-7.1 -0.22,-10.74 h -47.73 c 0.12,3.59 0.66,7.15 1.39,10.74 m 3.99,13.63 h 30.05 c 0.44,-0.97 0.84,-1.94 1.32,-2.86 0.31,-0.57 0.569,-0.981 1.058,-1.421 0.521,-0.467 0.561,0.135 1.976,1.159 0,0 0.436,0.272 2.086,1.352 1.65,1.08 2.76,1.64 2.76,1.64 l 0.225,-0.616 c 1.45,0.96 3.205,0.796 4.675,-0.024 0.81,-0.46 1.58,-0.99 2.47,-1.54 -2.38,-3.88 -6.64,-4.36 -9.48,-1.39 -0.46,-0.31 -0.86,-0.55 -0.97,-0.57 -0.06,-0.01 -0.13,-0.03 -0.22,-0.05 1.94,-1.93 4.31,-2.78 7.31,-2.48 0.44,-1.85 -0.02,-3.57 -0.38,-5.38 h -46.52 c 0.8,4.22 2.11,8.17 3.64,12.18 m 7.06,13.97 h 27.62 c -0.38,-0.43 -0.57,-0.67 -0.79,-0.88 -1.46,-1.38 -1.93,-3.16 -2.11,-5.07 -0.05,-0.53 -0.14,-1.1 -0.39,-1.56 -0.84,-1.52 -1.44,-3.1 -1.33,-4.98 h -29.44 c 1.81,4.48 3.97,8.6 6.44,12.49 m 74.88,-51.43 c 11.05,-3.96 21.92,-3.95 32.94,0.01 1.8,-1.68 3.67,-3.43 5.81,-5.43 -1.88,-0.8 -3.39,-1.62 -4.99,-2.09 -6.33,-1.87 -12.79,-2.99 -19.4,-2.66 -5.4,0.27 -10.72,1.16 -15.87,2.9 -1.35,0.45 -2.62,1.12 -4.31,1.86 2.16,2.01 4.03,3.75 5.82,5.41 m 10.88,20.02 c 2.26,1.32 8.96,1.32 11.14,-0.01 -3.77,-0.66 -7.36,-0.67 -11.14,0.01 m 12.41,-1.36 c 0.46,-3.37 0.71,-6.66 2.17,-9.72 1.44,-3 3.71,-5.3 6.07,-7.89 -10.1,-3.19 -19.96,-3.13 -30.14,-0.04 2.35,2.63 4.66,4.95 6.1,7.97 1.46,3.05 1.67,6.34 2.16,9.68 4.62,-1.13 9.08,-1.12 13.64,0 m -21.82,-1.8 c -0.82,-0.09 -1.36,0.37 -1.9,0.84 -2.53,2.18 -4.34,4.83 -5.28,8.05 -0.05,0.15 -0.02,0.36 -0.12,0.47 -0.19,0.23 -0.44,0.4 -0.67,0.59 -0.19,-0.29 -0.58,-0.63 -0.53,-0.87 0.18,-0.86 0.43,-1.72 0.8,-2.51 0.9,-1.96 1.89,-3.87 2.83,-5.81 0.35,-0.73 0.84,-1.44 0.52,-2.44 -0.83,-0.03 -1.39,0.51 -1.92,1.01 -2.81,2.64 -5.27,5.51 -6.35,9.33 -0.08,0.28 -0.48,0.69 -0.72,0.68 -0.61,-0.02 -0.63,-0.6 -0.48,-1.01 0.44,-1.24 0.86,-2.5 1.46,-3.68 0.87,-1.72 1.9,-3.36 2.83,-5.05 0.39,-0.72 0.82,-1.45 0.45,-2.67 -2.15,1.05 -3.84,2.41 -5.14,4.23 -1.66,2.34 -3.14,4.8 -4.11,7.53 -0.07,0.21 -0.13,0.45 -0.27,0.59 -0.18,0.17 -0.56,0.41 -0.65,0.34 -0.22,-0.17 -0.49,-0.51 -0.46,-0.74 0.06,-0.49 0.25,-0.97 0.47,-1.41 1.18,-2.31 2.38,-4.6 3.57,-6.9 0.52,-1.01 1.25,-1.92 1.55,-3.48 -0.95,0.57 -1.66,0.91 -2.29,1.38 -3.6,2.7 -5.99,6.28 -7.41,10.52 -0.2,0.6 -0.28,1.21 -1.37,1.01 0.09,-0.63 0.06,-1.3 0.31,-1.85 0.84,-1.91 1.77,-3.79 2.69,-5.67 0.47,-0.94 1.03,-1.83 1.49,-2.77 0.26,-0.52 0.4,-1.1 0.59,-1.66 -0.09,-0.09 -0.17,-0.18 -0.26,-0.27 -0.54,0.28 -1.13,0.51 -1.63,0.85 -3.43,2.38 -5.15,5.79 -5.88,9.8 -0.04,0.21 0.03,0.48 -0.08,0.65 -0.12,0.2 -0.38,0.46 -0.57,0.45 -0.2,0 -0.54,-0.29 -0.55,-0.47 -0.03,-0.65 -0.05,-1.33 0.1,-1.96 0.41,-1.66 0.92,-3.3 1.37,-4.95 0.17,-0.62 0.28,-1.25 0.44,-1.97 -0.36,0.03 -0.57,-0.01 -0.65,0.07 -2.32,2.21 -4.51,7.47 -2.54,11.59 1.57,3.28 4.11,4.96 7.65,5.21 2.2,0.15 4.41,0.15 6.61,0.28 1.49,0.08 2.98,0.22 4.45,0.45 0.78,0.12 1.51,0.21 2.52,0.54 0.72,-1.09 1.62,-2.09 2.44,-3.38 2.5,-3.91 4.48,-8.08 6.43,-12.27 0.37,-0.81 0.92,-1.67 0.26,-2.67 m -9.1,-6.94 c 0.32,-1.23 0.69,-2.44 1.04,-3.65 0.27,-0.94 0.56,-1.87 0.92,-3.1 -0.57,0.27 -0.88,0.35 -1.11,0.53 -2.03,1.7 -3.55,3.76 -4.37,6.3 -0.07,0.21 -0.05,0.49 -0.18,0.63 -0.16,0.17 -0.46,0.36 -0.66,0.33 -0.2,-0.04 -0.5,-0.35 -0.5,-0.54 0,-0.48 0.07,-1 0.24,-1.45 0.5,-1.34 1.07,-2.66 1.61,-3.99 0.32,-0.8 0.77,-1.58 0.5,-2.79 -0.61,0.43 -1.21,0.7 -1.61,1.15 -1.95,2.22 -3.55,4.64 -3.97,7.67 -0.07,0.52 0,1.3 -0.8,1.15 -0.69,-0.13 -0.64,-0.87 -0.48,-1.39 0.55,-1.85 1.14,-3.68 1.76,-5.5 0.53,-1.55 1.12,-3.08 1.68,-4.58 -0.82,-0.59 -1.42,-0.28 -1.86,0.07 -0.99,0.77 -2.02,1.56 -2.8,2.52 -2.09,2.56 -3.4,5.54 -4.12,8.76 -0.1,0.43 -0.09,1.02 -0.7,0.83 -0.28,-0.08 -0.56,-0.67 -0.55,-1.02 0.02,-0.59 0.22,-1.19 0.44,-1.75 0.87,-2.21 1.8,-4.39 2.68,-6.59 0.52,-1.3 1.25,-2.55 1.15,-4.08 -4.5,1.97 -10.03,12.58 -10.53,20.4 0.7,-1.1 1.17,-1.9 1.71,-2.65 0.32,-0.44 0.69,-0.88 1.12,-1.21 0.98,-0.74 1.79,-0.54 2.43,0.53 0.1,0.18 0.21,0.35 0.34,0.56 0.92,-0.82 1.75,-1.64 2.65,-2.35 0.6,-0.47 1.28,-0.89 1.99,-1.16 1.34,-0.51 2.01,-0.03 2.23,1.44 0.02,0.14 0.08,0.28 0.15,0.53 0.63,-0.5 1.16,-0.96 1.74,-1.37 0.49,-0.35 1,-0.69 1.54,-0.97 1.61,-0.84 2.16,-0.62 2.88,1.19 0.41,-0.28 0.79,-0.57 1.21,-0.81 0.52,-0.3 1.04,-0.65 1.61,-0.81 1.28,-0.38 2.03,0.18 2.16,1.49 0.03,0.33 0,0.66 0,1.14 1.05,-0.63 2,-1.2 3.07,-1.85 -0.65,-0.89 -0.48,-1.9 -0.09,-2.89 0.44,-1.13 0.94,-2.23 1.36,-3.37 0.21,-0.58 0.29,-1.21 0.43,-1.81 -0.1,-0.07 -0.21,-0.13 -0.32,-0.2 -0.4,0.24 -0.88,0.4 -1.19,0.72 -1.1,1.16 -2.2,2.33 -3.19,3.58 -0.31,0.38 -0.26,1.03 -0.45,1.54 -0.1,0.27 -0.35,0.49 -0.53,0.74 -0.24,-0.26 -0.59,-0.48 -0.68,-0.78 -0.11,-0.34 -0.05,-0.78 0.05,-1.14 m 8.28,0.76 c 0.31,-0.97 0.72,-1.9 1.08,-2.86 -2.31,0.76 -4.29,3.9 -4.05,5.76 0.01,0.11 0.05,0.21 0.1,0.3 0.78,1.54 0.78,1.54 0.82,2.74 0.74,-0.34 1.43,-0.85 2.18,-0.97 0.68,-0.1 1.43,0.23 2.41,0.42 0.53,-1.4 1.15,-2.91 1.67,-4.46 0.12,-0.35 0.04,-0.98 -0.2,-1.17 -0.27,-0.21 -0.88,-0.2 -1.23,-0.04 -0.85,0.39 -1.66,0.9 -1.92,1.92 -0.08,0.32 -0.14,0.66 -0.31,0.93 -0.12,0.19 -0.43,0.41 -0.62,0.37 -0.19,-0.03 -0.49,-0.38 -0.46,-0.54 0.12,-0.81 0.28,-1.62 0.53,-2.4 m -45.99,26.41 c -1.18,-0.68 -2.35,-1.38 -3.53,-2.08 -2.03,3.18 -2.24,6.38 -0.12,8.73 1.6,0.03 2.99,-0.56 4.19,-1.62 1.83,-1.62 1.59,-3.8 -0.54,-5.03 m -3.13,8.07 c -0.24,0.93 0.07,1.76 0.59,2.66 2.97,-1.01 5.54,-0.07 8,1.51 0.75,0.47 1.51,0.93 2.31,1.29 1.92,0.86 4.11,0.49 5.38,-0.83 1.03,-1.07 1.28,-2.41 0.43,-3.62 -0.59,-0.84 -1.44,-1.5 -2.23,-2.17 -0.37,-0.31 -0.89,-0.43 -1.3,-0.71 -0.29,-0.2 -0.5,-0.51 -0.74,-0.78 0.32,-0.24 0.62,-0.53 0.98,-0.71 0.22,-0.11 0.54,-0.02 0.81,-0.06 2.19,-0.31 3.07,-2.06 2.01,-4.02 -0.83,-1.56 -1.69,-1.82 -3.21,-0.97 -0.29,0.16 -0.57,0.34 -0.84,0.53 -1.91,1.27 -3.91,1.77 -6.24,0.64 0.68,3.94 -0.82,5.71 -5.95,7.24 m 13.82,-42.89 c -1.29,-0.33 -50.51,-0.42 -52.64,-0.09 v 9.75 h 47.95 c 0.83,-3.6 2.87,-6.56 4.69,-9.66 m 6.91,-10.69 c -0.75,1.35 -1.4,2.74 -1.57,4.66 3.02,-2.73 5.83,-5.27 8.7,-7.87 -1.38,-1.56 -2.68,-3.04 -4.01,-4.55 -0.12,0.14 -0.29,0.25 -0.31,0.38 -0.43,2.65 -1.53,5.05 -2.81,7.38 m 3.09,-12.7 c 0.1,1.49 0.52,2.84 1.42,3.99 1.05,1.34 2.19,2.62 3.37,3.86 1.84,1.91 3.77,3.73 4.86,6.23 0.13,0.29 0.37,0.55 0.57,0.81 0.05,0.06 0.18,0.06 0.27,0.09 0.06,-0.08 0.17,-0.17 0.16,-0.25 -0.37,-2.96 0.32,-5.82 0.75,-8.71 0.41,-2.76 0.2,-5.5 -0.38,-8.22 -0.23,-1.08 -0.69,-1.71 -1.91,-1.92 -3.83,-0.64 -7.23,-2.28 -10.17,-4.86 -0.15,-0.13 -0.35,-0.2 -0.71,-0.4 0.39,1.56 0.8,2.92 1.06,4.31 0.32,1.67 0.59,3.37 0.71,5.07 m 12.36,17.67 c -0.43,0.16 -1.09,0.09 -1.52,-0.14 -1.35,-0.72 -2.27,-1.9 -2.95,-3.26 -0.72,-1.44 -1.59,-2.76 -2.99,-3.81 -0.8,0.71 -1.6,1.38 -2.36,2.09 -3.49,3.29 -7.23,6.35 -10.24,10.11 -2.36,2.95 -4.37,6.13 -5.44,9.79 -1.16,3.99 -1.33,8.03 -0.36,12.11 0.6,2.52 1.13,5.07 0.78,7.38 1.17,1.33 2.17,2.49 3.21,3.6 0.29,0.3 0.71,0.48 1.08,0.69 1.32,0.74 2.17,1.82 2.47,3.33 0.33,1.71 -0.17,3.05 -1.64,4.01 -0.22,0.14 -0.45,0.29 -0.6,0.39 0.61,0.68 1.23,1.3 1.77,1.97 2.52,3.13 0.31,6.54 -2.53,7.3 -1.8,0.47 -3.51,0.25 -5.13,-0.64 -1.11,-0.61 -2.16,-1.34 -3.29,-1.93 -1.63,-0.85 -3.32,-1.41 -5.3,-0.49 0.65,1.09 1.52,1.86 2.44,2.52 3.69,2.62 7.83,3.2 12.16,2.31 3.27,-0.66 6.23,-2.22 9.16,-3.77 3.58,-1.89 6.97,-4.09 9.78,-7.03 1.48,-1.55 2.77,-3.28 4.11,-4.97 0.24,-0.3 0.45,-0.64 0.53,-1.03 0.11,-0.58 -0.32,-1.12 -0.91,-1.17 -2.09,-0.14 -7.62,-0.51 -10.04,-0.66 -0.82,-0.05 -1.66,-0.07 -2.47,-0.21 -4.88,-0.86 -7.47,-4.05 -8.38,-8.67 -0.98,-4.94 -0.24,-9.79 1.39,-14.5 1.13,-3.26 2.8,-6.26 4.82,-9.03 1.13,-1.54 2.57,-2.86 3.95,-4.2 0.57,-0.54 1.31,-1.18 2.21,-0.62 0.84,0.53 0.8,1.37 0.61,2.23 -0.04,0.2 0,0.42 0,0.72 0.57,-0.41 1.04,-0.82 1.56,-1.11 0.57,-0.32 1.18,-0.64 1.82,-0.76 0.23,-0.05 0.49,-0.01 0.71,0.08 1.79,0.74 1.5,1.71 1.43,2.58 0.91,-0.21 1.8,-0.66 2.63,-0.57 1.1,0.13 1.34,1.14 1.07,2.39 0.85,-0.6 1.45,-1.07 2.09,-1.45 0.54,-0.32 1.24,-0.53 1.68,0 0.31,0.37 0.43,1 0.4,1.5 -0.06,0.82 -0.31,1.61 -0.56,2.77 0.62,-0.57 1.02,-0.96 1.44,-1.31 0.34,-0.28 0.7,-0.55 1.09,-0.75 1.41,-0.74 2.4,-0.2 2.52,1.35 0.03,0.32 0.01,0.65 0.01,0.99 2.33,-0.66 3.4,-0.8 2.91,2.4 h 2.87 c -0.38,-0.65 -0.67,-1.37 -1.15,-1.92 -1.45,-1.67 -2.91,-3.33 -4.46,-4.88 -2.85,-2.85 -5.81,-5.59 -8.64,-8.45 -0.97,-0.97 -1.68,-2.19 -2.5,-3.3 -0.32,-0.43 -0.61,-0.88 -1.22,-1.29 -0.06,0.51 -0.2,1.03 -0.17,1.54 0.1,1.48 0.29,2.96 0.38,4.45 0.03,0.45 -0.01,1.24 -0.23,1.32 m -60.87,57.49 c 2.44,3.64 5.27,6.95 8.23,10.17 0.97,1.06 1.98,1.49 3.43,1.49 22.66,-0.04 45.32,-0.03 67.98,-0.03 14.81,0 29.62,-0.01 44.44,0.03 1.2,0 2.06,-0.32 2.89,-1.21 3.02,-3.24 5.83,-6.64 8.35,-10.28 0.25,-0.36 0.47,-0.75 0.73,-1.18 -0.55,-0.48 -1.17,-0.28 -1.73,-0.28 -8.07,-0.01 -16.14,-0.01 -24.21,-0.01 h -62.63 c -0.13,0 -0.25,-0.01 -0.39,-0.02 0.87,-0.4 1.74,-0.82 2.6,-1.25 0.05,-0.01 0.09,-0.01 0.14,-0.01 3.15,-0.02 20.52,0.04 23.67,0.04 20.61,0.01 41.23,-0.01 61.84,0.04 1.34,0 2.13,-0.39 2.72,-1.57 1.63,-3.26 3.33,-6.48 4.99,-9.72 0.19,-0.38 0.3,-0.81 0.5,-1.37 h -79 c 0.32,-0.43 0.64,-0.87 0.96,-1.3 h 78.61 c 1.64,-3.95 2.8,-8.01 3.77,-12.32 h -74.52 c 0.13,-0.23 0.25,-0.47 0.37,-0.7 0.11,-0.21 0.21,-0.41 0.32,-0.62 0.35,0.01 0.69,0 1.04,0 h 73.07 c 0.67,-3.57 1.45,-7.04 1.03,-10.89 -2.12,-0.07 -4.25,-0.02 -6.38,-0.03 -2.16,-0.01 -4.31,0 -6.47,0 h -37.5 c 0.08,-0.37 0.18,-0.72 0.29,-1.07 h 50.14 c 0.02,-3.34 0.05,-6.55 -0.03,-9.92 h -42.93 c 0.59,-0.57 1.19,-1.13 1.79,-1.68 h 0.03 c 7.68,0.03 28.4,0.02 36.09,0.02 h 27.96 c 0.36,-1.29 0.45,-18.6 0.13,-20.82 h -28.78 c 0.27,0.64 0.58,1.16 0.71,1.72 0.07,0.31 -0.07,0.77 -0.29,1 -0.14,0.15 -0.64,0.09 -0.89,-0.04 -0.43,-0.23 -0.82,-0.56 -1.17,-0.91 -1.32,-1.3 -2.26,-2.83 -2.91,-4.57 -0.57,-1.55 -1.22,-3.08 -1.9,-4.59 -0.48,-1.09 -1.31,-1.9 -2.35,-2.48 -1.53,-0.86 -3.05,-1.73 -4.74,-2.68 -0.13,0.55 -0.27,0.89 -0.3,1.24 -0.16,2.3 -0.8,4.47 -1.97,6.44 -0.88,1.48 -1.04,2.95 -0.56,4.59 1.09,3.8 0.96,7.54 -0.83,11.13 -0.35,0.69 -0.76,1.35 -1.16,2.01 -0.31,0.5 -0.75,0.85 -1.37,0.65 -0.67,-0.21 -0.64,-0.82 -0.67,-1.37 -0.01,-0.11 0.01,-0.22 0.01,-0.33 0.12,-2.84 -0.46,-4.34 -2.62,-6.62 -0.23,0.37 -0.49,0.69 -0.67,1.06 -2.43,4.99 -5.8,9.24 -9.94,12.92 -0.61,0.54 -1.21,1.08 -1.81,1.63 -1.19,0 -2.09,0.27 -2.61,1.68 h 0.82 c -1.14,1.08 -2.25,2.2 -3.33,3.34 -1.82,1.92 -3.09,4.13 -3.85,6.58 -0.37,-0.01 -0.74,-0.01 -1.11,0.03 -0.54,0.05 -0.71,0.39 -0.59,1.04 h 1.41 c -0.2,0.79 -0.34,1.6 -0.43,2.43 -0.15,1.31 -0.39,2.62 -0.55,3.94 -0.18,1.43 -0.94,2.27 -2.36,2.61 -3.93,0.93 -7.86,0.93 -11.8,-0.01 -1.52,-0.36 -2.19,-1.33 -2.37,-2.79 -0.21,-1.64 -0.42,-3.29 -0.66,-4.93 -0.1,-0.64 -0.27,-1.28 -0.51,-2.35 -0.48,0.89 -0.79,1.43 -1.07,1.99 -1.69,3.34 -3.34,6.7 -5.04,10.03 h -0.29 c -0.78,0 -1.21,0.33 -1.2,1.32 h 0.8 c -1.08,2.07 -2.19,4.12 -3.39,6.11 -0.97,1.6 -2.15,3.07 -3.25,4.58 -0.4,0.55 -0.81,1.09 -1.22,1.63 h -0.16 c -0.78,0 -1.18,0.39 -1.26,1.3 h 0.46 c -0.19,0.27 -0.38,0.53 -0.57,0.8 -3.49,4.96 -8.09,8.61 -13.42,11.34 -0.29,0.15 -0.58,0.3 -0.87,0.45 -0.99,0.01 -1.99,0.15 -2.97,0.3 -0.21,0.03 -0.37,0.38 -0.76,0.81 0.48,0.05 0.83,0.11 1.13,0.14 -1.79,0.82 -3.61,1.56 -5.48,2.15 -4.32,1.35 -8.64,0.8 -12.67,-1.33 -1.06,-0.56 -2.1,-0.82 -3.29,-0.82 -8.13,0.04 -16.25,0.02 -24.38,0.02 h -2.01 c 0.33,0.58 0.51,0.96 0.74,1.3 m 12.26,14.08 c 6.16,5.63 12.99,10.27 20.55,13.82 0.79,0.37 1.55,0.77 2.52,0.48 0.55,-0.17 1.2,-0.02 1.81,-0.02 21.06,0 42.12,0.01 63.17,-0.02 0.75,0 1.56,-0.12 2.23,-0.44 7.78,-3.61 14.8,-8.35 21.08,-14.2 0.16,-0.15 0.3,-0.32 0.44,-0.49 0.03,-0.03 0.02,-0.1 0.03,-0.16 -1.12,-0.35 -110.87,-0.43 -112.86,-0.05 0.38,0.41 0.68,0.77 1.03,1.08 m 55.4,21.62 c 10.43,-0.09 20.49,-1.94 30.17,-6.06 h -60.22 c 3.65,2.41 17.99,6.16 30.05,6.06 M 8.08,-0.12 H 1.79 v 23.01 c 0,2.34 -0.04,2.38 -2.43,2.38 -7.07,0 -14.15,0 -21.22,0.01 -0.64,0 -1.28,0.05 -2.03,0.08 v 19.88 c 0,0.39 0.02,0.78 0,1.16 -0.08,0.98 -0.46,1.38 -1.43,1.48 -0.43,0.05 -0.88,0.02 -1.32,0.02 h -20.44 c 0,3.49 -0.08,6.74 0.02,9.99 0.12,3.84 -0.37,7.62 -1.13,11.35 -3.98,19.8 -13.67,36.26 -29.32,49.05 -14.32,11.71 -30.86,17.83 -49.3,18.75 -7.14,0.36 -14.23,-0.31 -21.22,-1.86 -17,-3.77 -31.55,-11.9 -43.41,-24.63 -11.03,-11.86 -18.06,-25.82 -21.04,-41.76 -0.64,-3.46 -1.05,-6.98 -1.3,-10.49 -0.21,-2.86 -0.03,-5.75 -0.03,-8.62 0,-0.54 -0.05,-1.08 -0.08,-1.78 h -20.61 c -0.33,0 -0.67,0.02 -1,-0.01 -0.64,-0.05 -1,-0.42 -1.03,-1.07 -0.02,-0.44 -0.02,-0.88 -0.02,-1.32 V 25.31 h -23.39 c -0.44,0 -0.88,0.02 -1.32,-0.01 -1.02,-0.09 -1.23,-0.34 -1.23,-1.35 0.02,-7.4 0.04,-14.81 0.05,-22.21 0,-0.59 -0.05,-1.18 -0.08,-1.78 -0.51,-0.03 -0.84,-0.07 -1.16,-0.07 -1.61,-0.01 -3.21,-0.01 -4.81,-0.01 -0.48,0 -0.93,-0.11 -0.98,-0.66 -0.06,-0.62 0.39,-0.88 0.93,-0.93 0.44,-0.04 0.88,-0.02 1.32,-0.02 30.46,0 60.91,0.01 91.36,-0.01 4.3,0 8.59,-0.19 12.89,-0.23 2.09,-0.02 4.18,0.16 6.27,0.17 8.89,0.04 17.79,0.05 26.69,0.07 2.65,0.01 5.3,0 7.96,0 H 6.46 c 0.56,0 1.11,-0.01 1.66,0.03 0.53,0.03 1.04,0.23 1.04,0.84 -0.01,0.65 -0.55,0.73 -1.08,0.74"
             style="fill:#d7883b;fill-opacity:1;fill-rule:nonzero;stroke:none"
             id="path612" />
        </g>
        <g
           id="g614"
           transform="translate(515.7751,446.1953)">
          <path
             d="m 0,0 c 1.016,-1.191 1.802,-0.843 2.104,0.091 0.118,0.1 0.765,-0.496 0.993,-0.526 -0.598,-0.518 -1.216,-0.739 -1.8,-1.029 -0.623,-0.309 -1.415,0.588 -2.043,-0.45 0.838,-0.838 1.702,-0.994 2.739,-0.558 1.006,0.423 3.426,1.599 3.439,1.616 C 4.589,-0.164 3.881,0.53 3.066,1.063 1.674,1.975 -0.256,1.564 -1.18,0.203 -1.341,-0.034 -1.599,-0.711 -1.323,-1.007 -0.912,-0.655 -0.383,-0.208 0,0"
             style="fill:#d7883b;fill-opacity:1;fill-rule:nonzero;stroke:none"
             id="path616" />
        </g>
        <g
           id="g618"
           transform="translate(511.6039,435.7361)">
          <path
             d="m 0,0 c -0.114,0.052 -0.213,0.132 -0.31,0.212 -0.012,0.009 -0.024,0.015 -0.036,0.023 -0.007,0.001 -0.013,0.003 -0.019,0.004 -0.096,0.008 -0.192,0.015 -0.288,0.024 -0.034,0.004 -0.067,0.012 -0.102,0.016 -0.442,-1.053 -3.007,-3.601 -3.262,-3.821 -0.278,-0.241 0.111,-0.667 0.111,-0.667 0,0 0.307,-0.37 0.963,0.074 1.254,0.849 2.259,2.037 3.101,3.663 0.079,0.152 0.104,0.274 0.102,0.375 C 0.173,-0.073 0.088,-0.04 0,0"
             style="fill:#d7883b;fill-opacity:1;fill-rule:nonzero;stroke:none"
             id="path620" />
        </g>
        <g
           id="g622"
           transform="translate(527.74,451.02)">
          <path
             d="m 0,0 -2.016,0.274 1.158,-1.168 c 0,0 0.781,-0.295 0.858,-0.295 0.077,0 2.6,-0.061 2.6,-0.061 l -0.116,0.762"
             style="fill:#d7883b;fill-opacity:1;fill-rule:nonzero;stroke:none"
             id="path624" />
        </g>
        <g
           id="g626"
           transform="translate(545.2,437.18)">
          <path
             d="m 0,0 -0.791,0.262 v -1.037 l 0.593,-0.87 0.648,-0.093 0.51,0.438 0.305,0.562"
             style="fill:#d7883b;fill-opacity:1;fill-rule:nonzero;stroke:none"
             id="path628" />
        </g>
        <g
           id="g630"
           transform="translate(554.02,423.56)">
          <path
             d="m 0,0 -0.777,0.456 -0.389,-0.333 0.389,-1.111 0.685,-1.13 0.782,0.798 0.49,0.776"
             style="fill:#d7883b;fill-opacity:1;fill-rule:nonzero;stroke:none"
             id="path632" />
        </g>
        <g
           id="g634"
           transform="translate(579.5,411.32)">
          <path
             d="M 0,0 -1.378,0.627 -1.586,0.13 -1.431,-0.572 -1.297,-0.984 0,-1.422 0.29,-1.07 0.583,-0.752"
             style="fill:#d7883b;fill-opacity:1;fill-rule:nonzero;stroke:none"
             id="path636" />
        </g>
        <g
           id="g638"
           transform="translate(586.97,400.33)">
          <path
             d="m 0,0 -1.264,0.26 0.296,-1.314 1.593,-0.966 0.777,0.188 0.418,0.152 0.286,0.959"
             style="fill:#d7883b;fill-opacity:1;fill-rule:nonzero;stroke:none"
             id="path640" />
        </g>
        <g
           id="g642"
           transform="translate(630.3907,377.85)">
          <path
             d="M 0,0 V -1.785 H -23.903 V 0 h 15.459"
             style="fill:#d7883b;fill-opacity:1;fill-rule:nonzero;stroke:none"
             id="path644" />
        </g>
      </g>
    </g>
  </g>
</svg>
