<svg width="48" height="53" viewBox="0 0 48 53" fill="none" xmlns="http://www.w3.org/2000/svg">
<path d="M20.5618 39C17.603 39 14.8689 38.5253 12.3595 37.5758C9.85019 36.5899 7.6779 35.2205 5.8427 33.4677C4.00749 31.7149 2.56554 29.6517 1.51685 27.2781C0.505618 24.9045 0 22.3118 0 19.5C0 16.6882 0.505618 14.0955 1.51685 11.7219C2.56554 9.34831 4.00749 7.28511 5.8427 5.5323C7.71536 3.77949 9.90637 2.42837 12.4157 1.47893C14.9251 0.492978 17.6592 0 20.618 0C23.4644 0 26.1423 0.474719 28.6517 1.42416C31.161 2.33708 33.2772 3.72472 35 5.58708L32.3596 8.16152C30.7491 6.55478 28.97 5.4045 27.0225 4.71068C25.0749 3.98034 22.9775 3.61517 20.7303 3.61517C18.3708 3.61517 16.1798 4.01685 14.1573 4.82023C12.1348 5.58708 10.3745 6.70084 8.8764 8.16152C7.37828 9.58568 6.1985 11.2655 5.33708 13.2008C4.51311 15.0997 4.10112 17.1994 4.10112 19.5C4.10112 21.8006 4.51311 23.9185 5.33708 25.8539C6.1985 27.7528 7.37828 29.4326 8.8764 30.8933C10.3745 32.3174 12.1348 33.4312 14.1573 34.2346C16.1798 35.0014 18.3708 35.3848 20.7303 35.3848C22.9775 35.3848 25.0749 35.0197 27.0225 34.2893C28.97 33.559 30.7491 32.3905 32.3596 30.7837L35 33.3581C33.2772 35.2205 31.161 36.6264 28.6517 37.5758C26.1423 38.5253 23.4457 39 20.5618 39Z" fill="white"/>
<path d="M33.9731 53C31.1785 53 28.4914 52.5435 25.9117 51.6306C23.3679 50.6812 21.3973 49.4761 20 48.0155L21.5585 44.8933C22.8842 46.2079 24.6577 47.3216 26.8791 48.2346C29.1363 49.111 31.501 49.5492 33.9731 49.5492C36.3378 49.5492 38.2546 49.257 39.7236 48.6728C41.2284 48.052 42.3212 47.2303 43.0019 46.2079C43.7185 45.1854 44.0768 44.0534 44.0768 42.8118C44.0768 41.3146 43.6468 40.1096 42.7869 39.1966C41.9629 38.2837 40.8701 37.5716 39.5086 37.0604C38.1472 36.5126 36.6424 36.0379 34.9942 35.6362C33.3461 35.2346 31.698 34.8146 30.0499 34.3764C28.4018 33.9017 26.8791 33.2809 25.4818 32.514C24.1203 31.7472 23.0096 30.743 22.1497 29.5014C21.3257 28.2233 20.9136 26.5618 20.9136 24.5169C20.9136 22.618 21.3973 20.8834 22.3647 19.3132C23.3679 17.7065 24.8906 16.4284 26.9328 15.4789C28.975 14.493 31.5905 14 34.7793 14C36.8932 14 38.9891 14.3104 41.0672 14.9312C43.1452 15.5154 44.9367 16.3371 46.4415 17.3961L45.0979 20.6278C43.4856 19.5323 41.7658 18.7289 39.9386 18.2177C38.1472 17.7065 36.4095 17.4508 34.7255 17.4508C32.4683 17.4508 30.6052 17.7612 29.1363 18.382C27.6673 19.0028 26.5745 19.8427 25.858 20.9017C25.1772 21.9242 24.8369 23.0927 24.8369 24.4073C24.8369 25.9045 25.2489 27.1096 26.0729 28.0225C26.9328 28.9354 28.0435 29.6475 29.405 30.1587C30.8023 30.6699 32.325 31.1264 33.9731 31.5281C35.6212 31.9298 37.2514 32.368 38.8637 32.8427C40.5118 33.3174 42.0166 33.9382 43.3781 34.7051C44.7754 35.4354 45.8861 36.4213 46.7102 37.6629C47.5701 38.9045 48 40.5295 48 42.5379C48 44.4003 47.4984 46.1348 46.4952 47.7416C45.492 49.3118 43.9514 50.5899 41.8733 51.5758C39.8311 52.5253 37.1977 53 33.9731 53Z" fill="white"/>
</svg>
