<svg enable-background="new 0 0 32 32" viewBox="0 0 32 32" xmlns="http://www.w3.org/2000/svg"><g id="grid"/><g id="Layer_2"/><g id="Layer_3"/><g id="Layer_4"/><g id="Layer_5"/><g id="Layer_6"/><g id="Layer_7"/><g id="Layer_8"/><g id="Layer_9"/><g id="Layer_10"/><g id="Layer_11"/><g id="Layer_12"/><g id="Layer_13"/><g id="Layer_14"/><g id="Layer_15"><path d="m24 3h-16c-2.7568 0-5 2.2432-5 5v16c0 2.7568 2.2432 5 5 5h16c2.7568 0 5-2.2432 5-5v-16c0-2.7568-2.2432-5-5-5zm-1.6465 14.0606-5.6465 5.6464c-.1953.1953-.4511.293-.707.293s-.5117-.0977-.707-.293l-5.6464-5.6464c-.1953-.1953-.1953-.5118 0-.7072l.7069-.7069c.1953-.1953.5118-.1953.7072 0l4.9393 4.9394 4.9394-4.9394c.1953-.1953.5118-.1953.7072 0l.7069.7069c.1953.1954.1953.5119 0 .7072zm0-6-5.6465 5.6464c-.1953.1953-.4511.293-.707.293s-.5117-.0977-.707-.293l-5.6464-5.6464c-.1953-.1953-.1953-.5118 0-.7072l.7069-.7069c.1953-.1953.5118-.1953.7072 0l4.9393 4.9394 4.9394-4.9394c.1953-.1953.5118-.1953.7072 0l.7069.7069c.1953.1954.1953.5119 0 .7072z"/></g><g id="Layer_16"/><g id="Layer_17"/><g id="Layer_18"/><g id="Layer_19"/><g id="Layer_20"/><g id="Layer_21"/><g id="Layer_22"/><g id="Layer_23"/><g id="Layer_24"/><g id="Layer_25"/><g id="Layer_26"/><g id="Layer_27"/><g id="Layer_28"/><g id="Layer_29"/><g id="Layer_30"/><g id="Layer_31"/><g id="Layer_32"/><g id="Layer_33"/><g id="Layer_34"/><g id="Layer_35"/><g id="Layer_36"/><g id="Layer_37"/><g id="Layer_38"/><g id="Layer_39"/><g id="Layer_40"/><g id="Layer_41"/><g id="Layer_42"/><g id="Layer_43"/><g id="Layer_44"/><g id="Layer_45"/><g id="Layer_46"/><g id="Layer_47"/><g id="Layer_48"/><g id="Layer_49"/><g id="Layer_50"/><g id="Layer_51"/><g id="Layer_52"/><g id="Layer_53"/><g id="Layer_54"/><g id="Layer_55"/><g id="Layer_56"/><g id="Layer_57"/><g id="Layer_58"/><g id="Layer_59"/><g id="Layer_60"/><g id="Layer_61"/></svg>