<svg width="233" height="182" viewBox="0 0 233 182" fill="none" xmlns="http://www.w3.org/2000/svg">
<path fill-rule="evenodd" clip-rule="evenodd" d="M120.429 7.59341C121.207 2.68404 125.817 -0.665446 130.726 0.112121C135.636 0.889688 138.985 5.49986 138.208 10.4092L112.3 173.987C111.522 178.896 106.912 182.245 102.002 181.468C97.0931 180.69 93.7436 176.08 94.5211 171.171L120.429 7.59341ZM162.636 41.3656C159.121 37.8509 159.121 32.1525 162.636 28.6377C166.151 25.123 171.849 25.123 175.364 28.6377L228.644 81.9178C228.925 82.1387 229.196 82.3787 229.455 82.6378C231.224 84.4066 232.102 86.7284 232.091 89.0467C232.103 91.3654 231.224 93.6877 229.455 95.4568C229.196 95.7159 228.925 95.9559 228.644 96.1768L175.364 149.457C171.849 152.972 166.151 152.972 162.636 149.457C159.121 145.942 159.121 140.244 162.636 136.729L210.318 89.0473L162.636 41.3656ZM69.4551 136.729C72.9699 140.244 72.9698 145.942 69.4551 149.457C65.9404 152.972 60.2419 152.972 56.7272 149.457L3.44728 96.1769C3.16617 95.956 2.89517 95.716 2.63604 95.4568C0.867115 93.6879 -0.0115266 91.3658 0.000115259 89.0474C-0.011582 86.7289 0.867061 84.4067 2.63604 82.6377C2.89516 82.3786 3.16615 82.1386 3.44726 81.9177L56.7272 28.6377C60.2419 25.123 65.9404 25.123 69.4551 28.6377C72.9699 32.1525 72.9699 37.8509 69.4551 41.3657L21.7735 89.0473L69.4551 136.729Z" fill="url(#paint0_linear_70_9)"/>
<defs>
<linearGradient id="paint0_linear_70_9" x1="116.046" y1="0" x2="116.046" y2="181.58" gradientUnits="userSpaceOnUse">
<stop stop-color="#00E6D4"/>
<stop offset="1" stop-color="#00ACEA"/>
</linearGradient>
</defs>
</svg>
