<svg height="100" viewBox="0 0 100 100" width="100" xmlns="http://www.w3.org/2000/svg"><g id="MiMedia---Web" fill-rule="evenodd"><g id="icon24pt_new_window" transform="translate(2 2)"><path id="Rectangle-2064" d="m73.7883228 16-29.2243128 29.2243128c-1.7155338 1.7155338-1.7180182 4.5039442.0002887 6.2222511 1.7148105 1.7148105 4.5041036 1.7184362 6.2222511.0002887l29.2134502-29.2134502v9.7697587c0 2.2027186 1.790861 3.9968389 4 3.9968389 2.2046438 0 4-1.7894457 4-3.9968389v-20.0063222c0-1.100834-.4472883-2.09961583-1.1705373-2.82340295-.7243502-.72502576-1.7231324-1.17343595-2.8263016-1.17343595h-20.0063222c-2.2027186 0-3.9968389 1.790861-3.9968389 4 0 2.2046438 1.7894457 4 3.9968389 4zm14.2116772 40v-19.0148493 41.0445479c0 5.5064454-3.9672124 9.9703014-8.8670635 9.9703014h-62.265873c-4.8971439 0-8.8670635-4.4725688-8.8670635-9.9703014v-60.0593972c0-5.5064454 3.9672124-9.9703014 8.8670635-9.9703014h42.6994047-19.5664682c2.209139 0 4 1.790861 4 4s-1.790861 4-4 4h-21.7222061c-1.2725067 0-2.2777939 1.1947367-2.2777939 2.668519v58.662962c0 1.4471826 1.0198031 2.668519 2.2777939 2.668519h59.4444122c1.2725067 0 2.2777939-1.1947367 2.2777939-2.668519v-21.331481c0-2.209139 1.790861-4 4-4s4 1.790861 4 4z"/></g></g></svg>