<svg width="8581" height="1250" viewBox="0 0 8581 1250" fill="none" xmlns="http://www.w3.org/2000/svg">
<path d="M562.255 337.915H0L91.0852 0.5625H1665.4L1574.31 337.915H1012.06L771.413 1237.52H321.61L562.255 337.915Z" fill="#47C9FF"/>
<path d="M2292.65 349.833H2180.2L1939.55 1249.44H1489.75L1821.48 12.4805H3395.79L3064.06 1249.44H2614.26L2854.9 349.833H2742.45L2501.81 1249.44H2052L2292.65 349.833Z" fill="#47C9FF"/>
<path d="M7356.63 799.518L7447.76 461.994H8460.34L8248.82 1249.55H6673.71L7005.6 11.9609H8580.72L8489.59 349.486H7364.51L7213.74 912.027H7888.79L7919.17 799.518H7356.63Z" fill="#B8F2FF"/>
<path d="M5610.08 799.518L5701.21 461.994H6713.79L6502.27 1249.55H4927.16L5259.06 11.9609H6834.17L6743.04 349.486H5617.96L5467.2 912.027H6142.25L6172.62 799.518H5610.08Z" fill="#B8F2FF"/>
<path d="M3525 539.888C3525.01 5.38 4088.49 -74.1017 4259.5 84.8887V130.39C4052.49 142.398 3851 229.889 3845 539.888C3838.28 886.898 4114.99 934.898 4259.5 956.39V1004.89C4061.99 1132.4 3524.99 1074.4 3525 539.888Z" fill="#B8F2FF"/>
<path d="M4837.5 727.888C4837.49 193.38 4274.01 113.898 4103 272.889V318.39C4310.01 330.398 4511.5 417.889 4517.5 727.888C4524.22 1074.9 4247.51 1122.9 4103 1144.39V1192.89C4300.51 1320.4 4837.51 1262.4 4837.5 727.888Z" fill="#47C9FF"/>
</svg>
